<?xml version="1.0" standalone="no"?><!DOCTYPE svg PUBLIC "-//W3C//DTD SVG 1.1//EN" "http://www.w3.org/Graphics/SVG/1.1/DTD/svg11.dtd"><svg t="1554815586580" class="icon" style="" viewBox="0 0 1024 1024" version="1.1" xmlns="http://www.w3.org/2000/svg" p-id="4516" xmlns:xlink="http://www.w3.org/1999/xlink" width="81" height="81"><defs><style type="text/css"></style></defs><path d="M244.2 330.5c0 17.4 14.1 31.5 31.5 31.5s31.5-14.1 31.5-31.5-14.1-31.5-31.5-31.5-31.5 14.1-31.5 31.5z m127-50.8c0 14.5 11.8 26.3 26.3 26.3s26.3-11.8 26.3-26.3-11.8-26.3-26.3-26.3-26.3 11.8-26.3 26.3zM599.4 598c-1.5-1.3-3.7-1-5 0.5-1.3 1.5-1 3.7 0.5 5.1 0 0 2.5 2.2 6.7 5.9 0.7 0.7 1.5 0.8 2.4 0.8 1 0 2-0.3 2.7-1.2 1.3-1.5 1.2-3.7-0.3-5.1-4.3-3.6-6.8-5.8-7-6z m19.9 18.2c-1.5-1.3-3.7-1.3-5 0.2-1.3 1.5-1.3 3.7 0.2 5 4.4 4.2 8.6 8.2 12.5 12.3 0.7 0.7 1.7 1.2 2.5 1.2s1.9-0.3 2.5-1c1.3-1.3 1.5-3.7 0.2-5.1-4.3-4.2-8.5-8.4-12.9-12.6z m124.4 66.7c-5.9 1.5-11.4 2.7-16.8 3.5-2 0.3-3.4 2.2-3 4 0.3 1.9 1.9 3 3.5 3h0.5c5.6-0.8 11.6-2.2 17.7-3.7 1.9-0.5 3-2.5 2.5-4.4-0.5-1.8-2.5-2.9-4.4-2.4z m64.3-26.6c-5.2 2.9-10.4 5.6-15.7 7.9-1.9 0.8-2.5 3-1.7 4.7 0.7 1.3 1.9 2 3.2 2 0.5 0 1-0.2 1.5-0.3 5.2-2.5 10.6-5.2 15.8-8.1 1.7-1 2.4-3 1.5-4.9-0.7-1.7-2.9-2.4-4.6-1.3z m-31.4 15.1c-5.6 2.4-10.9 4.4-16.3 6.2-1.9 0.7-2.9 2.7-2.2 4.5 0.5 1.5 1.9 2.4 3.4 2.4 0.3 0 0.8 0 1.2-0.2 5.4-1.9 10.9-4 16.7-6.4 1.9-0.8 2.7-2.9 1.9-4.7-0.9-1.6-2.9-2.6-4.7-1.8z m61.8-32.7c-5.1 3.2-10.1 6.2-15 9.1-1.7 1-2.4 3.2-1.3 4.9 0.7 1.2 1.9 1.9 3 1.9 0.7 0 1.2-0.2 1.9-0.5 4.9-2.9 10.1-5.9 15.1-9.1 1.7-1 2.2-3.2 1.2-4.9-1.1-1.7-3.3-2.5-4.9-1.4z m-128.7 49.2h-0.8c-5.7 0-11.1-0.5-16-1.5-2-0.3-3.9 0.8-4.2 2.9-0.3 2 0.8 3.9 2.9 4.2 5.4 1.2 11.3 1.7 17.5 1.7h0.8c2 0 3.5-1.7 3.5-3.5 0-2.3-1.7-3.8-3.7-3.8z m234.4-97l1.2-2.4h1.2c5.4 0 9.8-4.4 9.8-9.8s-4.4-9.8-9.8-9.8-9.8 4.4-9.8 9.8c0 2.4 0.8 4.7 2.4 6.4l-1.7 3.4c-1.9-0.3-3.9-0.5-5.9-0.5-6.7 0-12.8 2.2-17.8 5.9l-5.4-4.9c0.7-1.3 1-2.7 1-4.2 0-5.4-4.4-9.8-9.8-9.8s-9.8 4.4-9.8 9.8 4.4 9.8 9.8 9.8c1.3 0 2.5-0.3 3.5-0.7l5.2 4.9c-1.2 1.3-2.2 2.7-3 4.2-1.3-0.5-2.5-0.8-4-1.2-0.2 0-0.3 0-0.3-0.2-2.5-0.5-5-0.8-7.7-0.8-15.2 0-27.8 14-29.5 22.6-1-0.3-2-0.2-3 0.5-2.5 1.7-5.1 3.4-7.4 5.1-1.7 1-2.2 3.4-1 5 0.7 1 1.9 1.7 3 1.7 0.7 0 1.3-0.2 2-0.7 2.5-1.6 4.9-3.2 7.2-4.9 3 8.1 13 17.7 24.9 19.4h0.3c1 0.2 2.2 0.2 3.2 0.2 6.1 0 11.6-1.5 16.3-4 0.3-0.2 0.5-0.3 0.8-0.5 1.2-0.7 2.3-1.5 3.4-2.4 5.1 3.5 11.1 5.7 17.7 5.7 16.7 0 30.3-13.6 30.3-30.3 0.2-11.9-7-22.4-17.3-27.3z m-44.8-3.3a2.732 2.732 0 0 1-2.7-2.7c0-1.5 1.2-2.7 2.7-2.7 1.5 0 2.7 1.2 2.7 2.7a2.732 2.732 0 0 1-2.7 2.7z m47-11.3a2.732 2.732 0 0 1 2.7 2.7 2.732 2.732 0 0 1-2.7 2.7 2.732 2.732 0 0 1-2.7-2.7 2.732 2.732 0 0 1 2.7-2.7z m-75.6 49.1c0-1.9 3-6.9 7.7-10.9-0.3 1-0.5 2.2-0.7 3.4-1 6.2-0.5 13.8 2.2 20.4-5.7-4.1-9.2-9.8-9.2-12.9z m22.4 17.4h-1.3c-6.9-5.9-8.1-16-6.9-23.7 1-6.4 3.4-9.3 4-9.6 0.5-0.2 0.8-0.5 1.2-0.8 1-0.2 2-0.3 3-0.3h0.2c-2.2 4.2-3.5 9.8-3.4 15.2 0.3 7.7 3.7 14.3 9.4 18.5-2 0.3-4 0.7-6.2 0.7z m14.5-4.2c-8.4-3.5-10.4-10.3-10.6-15.5-0.3-6.6 2.2-12 4-13.8 0.5 0.2 0.8 0.3 1.3 0.3-0.9 2.8-1.3 5.8-1.3 8.8 0 7.4 2.7 14.3 7.2 19.7-0.1 0.1-0.3 0.3-0.6 0.5z m23.7 3c-12.8 0-23.1-10.4-23.1-23.1 0-12.6 10.4-23.1 23.1-23.1 12.6 0 23.1 10.4 23.1 23.1 0 12.7-10.3 23.1-23.1 23.1z" fill="#1296db" p-id="4517"></path><path d="M916 613.8c0 2.8 2.3 5 5 5 2.8 0 5.1-2.3 5.1-5 0-2.8-2.3-5-5.1-5s-5 2.2-5 5z m21.7-2.2c0 2.8 2.3 5 5.1 5s5-2.3 5-5c0-2.8-2.3-5-5-5-2.9 0-5.1 2.2-5.1 5zM749.2 259.5c4.6-0.3 20.9 8.6 30.9 24.5 5.3 8.6 10.1 21.5 2.6 34.9-2 3.6-0.8 8.1 2.7 10.3 0.6 0.3 1.3 0.7 2 0.8 3.2 0.8 6.7-0.5 8.3-3.6 8.7-15.4 7.7-33.5-2.9-50.4-11.1-17.6-32.1-32.4-44.8-31.6-4.1 0.3-7.3 3.8-7.1 8 0.6 4.3 4.2 7.4 8.3 7.1z m14.8-37.3c4.8 0.3 33.5 9.2 50.5 32.1 12.6 17.1 16 37.9 10.1 61.6-1 4.1 1.4 8.2 5.4 9.1 3.9 1 8.2-1.4 9.1-5.4 7.2-28.5 2.9-53.5-12.6-74.4-19.5-26-51.6-37.6-61.8-38.2-4.1-0.1-7.6 3-7.8 7.1-0.1 4.3 3 7.8 7.1 8.1zM235.2 632.5c-51.1-15.1-42.2-77.1-41.7-79.7 0.7-4-2.2-8-6.2-8.7-4-0.7-8 2.2-8.7 6.2-0.2 0.7-3 19.4 1.7 40.4 6.5 28.8 24 48.3 50.5 56.1 0.7 0.2 1.2 0.2 1.9 0.2 3.3 0.1 6.4-2.1 7.4-5.4 1.5-3.7-0.9-8.1-4.9-9.1z" fill="#1296db" p-id="4518"></path><path d="M646.6 693.5l12.5-14.3 0.5 1c1.5 2 3.2 3.9 4.9 5.6l-17.9 7.7z m133.5-153.1l28.1-11.3L684.1 677l-12.3 5.4c-2.5-2-4.7-4.2-6.6-6.7-0.5-0.7-1.3-1.2-2-1.3l116.9-134z m-11.5-105.9v94.6l-200.5 60.1-5.2-106.6 205.7-48.1z m-89-157c35.2 0 63.8 28.6 63.8 63.8 0 35.2-28.6 63.8-63.8 63.8-35.2 0-63.8-28.6-63.8-63.8 0-35.2 28.6-63.8 63.8-63.8z m-72.4 93.2c11.6 28.5 39.7 48.7 72.4 48.7 1.7 0 3.5 0 5.2-0.2l11.6 17.5L553.8 470c-3.4 0.8-5.7 3.9-5.6 7.4l4.5 93.6-114.4-187 168.9-13.3zM366.4 561.8c0-21.2-8.4-40.4-22.2-54.4l81.5-116.8 114.8 187.6-76.1-44.2c-3-1.7-6.7-1-9.1 1.5L344.7 665.4l-18.9-35.2c24.1-13.1 40.6-38.9 40.6-68.4z m-78.3 63.8c-35.2 0-63.8-28.6-63.8-63.8 0-35.2 28.6-63.8 63.8-63.8 35.2 0 63.8 28.6 63.8 63.8 0 35.2-28.6 63.8-63.8 63.8zM83 770.9c21.3-8.5 28-14.4 39.9-23.1 34.6-25.3 51.9-64.2 51.9-64.2 12.1-33.4 8.9-69.3-9.5-106.7l0.6-0.3-1.7-2.9c-28.6-47.8-61-102-61-164.7 0-136.3 110.9-247.1 247.1-247.1 115.5 0 211.8 72.3 239.2 195.7l13.9-1.1c-13.4-60.6-40.5-104.6-84.9-144.6-47.6-42.9-105.7-65.6-168.1-65.6-70.2 0-136.2 27.3-185.8 77-49.6 49.6-77 115.6-77 185.8 0 63.8 30.5 117.8 59 165.6 1.1 2 2.1 3.9 3.1 5.8 18 34.7 21.6 67.6 10.6 97.8-21.8 60.3-96.9 89.3-97.6 89.6 0 0 33 40 58.3 54.3 30.6 17.3 106.7 55.5 296.3 55.5 189.6 0 343.1-37.9 343.1-84.5-0.7-27.3-52.9-51.5-134-67l0.8-8.4 64.7-28.3c1-0.5 1.9-1.2 2.7-2L838 516.6c2.2-2.5 2.2-6.2 0.3-8.8-1.9-2.7-5.4-3.7-8.4-2.5l-46.5 18.5v-98.3c0-2.2-1-4.2-2.7-5.6-1.7-1.3-4-1.9-6.1-1.3l-62.8 14.6-11.1-16.7c33-9.1 57.4-39.4 57.4-75.4 0-43.1-35-78.1-78.1-78.1-43.1 0-78.1 35-78.1 78.1 0 5.2 0.5 10.4 1.5 15.5l-62.5 4.9-13.6 0.3-100.5 7.7c-0.2 0-0.5 0.2-0.7 0.2h-0.5l-1.5 0.5c-0.5 0.2-1 0.5-1.3 0.8l-1.3 1.3-87 124.6c-12.8-9.1-28.3-14.3-45-14.3-43.1 0-78.1 35-78.1 78.1 0 43.1 35 78.1 78.1 78.1 8.3 0 16.5-1.3 24.4-3.9L336 676l-37.7 44.1c-1.5 1.7-2 3.9-1.5 6.1 0.5 2.2 16.2 8 14.1 8.9C209.5 774.3 97.5 772.4 83 770.9z m230.9-47.3l34.7-40.7 0.3-0.3 113.5-133 87.9 50.8-144.8 168.2-91.6-45z m293.6 48.7l-198.8 65.2 5.6-54.4L612.1 723l-4.6 49.3z m-178.4-8.8l136.5-158.6 188.6-56.4-98.7 113-0.2-0.2c-3.4-4.4-7.1-9.1-11.3-13.8-1.3-1.5-3.5-1.7-5-0.3-1.5 1.3-1.7 3.5-0.3 5 4 4.7 7.7 9.3 10.9 13.5 0.3 0.5 0.8 0.8 1.3 1L616 706.6l-186.9 56.9z" fill="#1296db" p-id="4519"></path></svg>