<?xml version="1.0" standalone="no"?><!DOCTYPE svg PUBLIC "-//W3C//DTD SVG 1.1//EN" "http://www.w3.org/Graphics/SVG/1.1/DTD/svg11.dtd"><svg t="1553591188522" class="icon" style="" viewBox="0 0 2844 1024" version="1.1" xmlns="http://www.w3.org/2000/svg" p-id="3753" xmlns:xlink="http://www.w3.org/1999/xlink" width="224.96484375" height="81"><defs><style type="text/css"></style></defs><path d="M2730.666667 1024H113.777778c-62.577778 0-113.777778-51.2-113.777778-113.777778V113.777778C0 51.2 51.2 0 113.777778 0h2616.888889c62.577778 0 113.777778 51.2 113.777777 113.777778v796.444444c0 62.577778-51.2 113.777778-113.777777 113.777778z" fill="#FFF1DE" p-id="3754"></path><path d="M984.177778 420.977778H466.488889c-39.822222 0-73.955556 34.133333-73.955556 73.955555v284.444445c0 39.822222 34.133333 73.955556 73.955556 73.955555h517.688889c39.822222 0 73.955556-34.133333 73.955555-73.955555v-284.444445c0-39.822222-34.133333-73.955556-73.955555-73.955555z m0 318.577778c0 22.755556-17.066667 34.133333-34.133334 34.133333H500.622222c-22.755556 0-34.133333-17.066667-34.133333-34.133333V534.755556c0-22.755556 17.066667-34.133333 34.133333-34.133334h443.733334c22.755556 0 34.133333 17.066667 34.133333 34.133334V739.555556zM500.622222 369.777778c0-113.777778 91.022222-204.8 204.8-204.8h34.133334c113.777778 0 204.8 91.022222 204.8 204.8 0 22.755556-17.066667 34.133333-34.133334 34.133333-22.755556 0-34.133333-17.066667-34.133333-34.133333 0-73.955556-56.888889-130.844444-130.844445-130.844445h-34.133333c-73.955556 0-130.844444 56.888889-130.844444 130.844445 0 22.755556-17.066667 34.133333-34.133334 34.133333s-45.511111-17.066667-45.511111-34.133333z m261.688889 221.866666v73.955556c0 22.755556-17.066667 34.133333-34.133333 34.133333s-34.133333-17.066667-34.133334-34.133333v-73.955556c0-22.755556 17.066667-34.133333 34.133334-34.133333s34.133333 11.377778 34.133333 34.133333z" fill="#FF9C00" p-id="3755"></path><path d="M1376.711111 659.911111c45.511111-56.888889 79.644444-119.466667 102.4-187.733333h-96.711111v-45.511111H1479.111111V347.022222c-28.444444 5.688889-56.888889 5.688889-85.333333 5.688889 0-11.377778-5.688889-28.444444-11.377778-39.822222 96.711111-5.688889 170.666667-17.066667 227.555556-22.755556l11.377777 39.822223c-28.444444 5.688889-62.577778 11.377778-96.711111 11.377777v85.333334h108.088889v39.822222h-108.088889v79.644444l22.755556-22.755555c28.444444 22.755556 56.888889 51.2 79.644444 73.955555l-28.444444 34.133334c-22.755556-28.444444-51.2-51.2-73.955556-73.955556v250.311111H1479.111111V563.2c-22.755556 56.888889-51.2 102.4-85.333333 142.222222 0-11.377778-11.377778-28.444444-17.066667-45.511111z m438.044445-176.355555c39.822222 102.4 79.644444 204.8 113.777777 301.511111l-45.511111 22.755555c-5.688889-22.755556-11.377778-39.822222-22.755555-62.577778-79.644444 5.688889-142.222222 11.377778-193.422223 17.066667-17.066667 0-34.133333 5.688889-45.511111 11.377778l-17.066666-45.511111c11.377778-11.377778 28.444444-28.444444 34.133333-56.888889 39.822222-119.466667 79.644444-250.311111 113.777778-392.533333l56.888889 5.688888c-51.2 182.044444-96.711111 324.266667-136.533334 432.355556 51.2-5.688889 113.777778-5.688889 182.044445-11.377778-22.755556-68.266667-51.2-136.533333-73.955556-204.8l34.133334-17.066666zM2104.888889 807.822222h-45.511111v-284.444444c-28.444444 34.133333-56.888889 62.577778-91.022222 91.022222-5.688889-11.377778-17.066667-28.444444-28.444445-39.822222C2013.866667 512 2065.066667 449.422222 2104.888889 375.466667h-153.6v-45.511111h170.666667c22.755556-22.755556 28.444444-45.511111 39.822222-68.266667l45.511111 11.377778c-5.688889 22.755556-17.066667 39.822222-22.755556 62.577777h312.888889v39.822223H2161.777778c-11.377778 22.755556-22.755556 45.511111-39.822222 62.577777h307.2v295.822223c0 45.511111-22.755556 68.266667-68.266667 68.266666h-91.022222c0-11.377778-5.688889-28.444444-5.688889-45.511111 34.133333 0 62.577778 5.688889 79.644444 5.688889 22.755556 0 39.822222-11.377778 39.822222-39.822222V682.666667H2104.888889v125.155555z m278.755555-329.955555H2104.888889v68.266666h278.755555V477.866667z m-278.755555 170.666666h278.755555v-68.266666H2104.888889v68.266666z" fill="#FF9C00" p-id="3756"></path></svg>