<?xml version="1.0" standalone="no"?><!DOCTYPE svg PUBLIC "-//W3C//DTD SVG 1.1//EN" "http://www.w3.org/Graphics/SVG/1.1/DTD/svg11.dtd"><svg t="1553591201009" class="icon" style="" viewBox="0 0 2844 1024" version="1.1" xmlns="http://www.w3.org/2000/svg" p-id="4499" xmlns:xlink="http://www.w3.org/1999/xlink" width="224.96484375" height="81"><defs><style type="text/css"></style></defs><path d="M2730.666667 1024H113.777778c-62.577778 0-113.777778-51.2-113.777778-113.777778V113.777778C0 51.2 51.2 0 113.777778 0h2616.888889c62.577778 0 113.777778 51.2 113.777777 113.777778v796.444444c0 62.577778-51.2 113.777778-113.777777 113.777778z" fill="#E7FBFF" p-id="4500"></path><path d="M1376.711111 529.066667c85.333333-68.266667 142.222222-147.911111 187.733333-238.933334l45.511112 17.066667c-51.2 102.4-113.777778 187.733333-193.422223 256-11.377778-11.377778-22.755556-22.755556-39.822222-34.133333z m364.088889 68.266666c51.2 68.266667 96.711111 130.844444 136.533333 187.733334l-39.822222 28.444444-34.133333-51.2c-119.466667 5.688889-221.866667 11.377778-295.822222 17.066667-11.377778 0-28.444444 5.688889-51.2 11.377778L1422.222222 739.555556c17.066667-5.688889 34.133333-17.066667 45.511111-28.444445 45.511111-51.2 91.022222-125.155556 142.222223-221.866667l45.511111 22.755556c-45.511111 79.644444-96.711111 153.6-147.911111 221.866667 73.955556 0 164.977778-5.688889 261.688888-11.377778l-68.266666-102.4 39.822222-22.755556z m-51.2-301.511111l39.822222-17.066666c34.133333 96.711111 102.4 170.666667 199.111111 227.555555-11.377778 11.377778-22.755556 22.755556-34.133333 45.511111-96.711111-68.266667-164.977778-153.6-204.8-256zM1951.288889 512h142.222222V347.022222h-119.466667v-45.511111h500.622223v45.511111h-113.777778V512h136.533333v45.511111h-136.533333v256h-45.511111V551.822222h-176.355556c0 68.266667-11.377778 119.466667-28.444444 153.6-17.066667 34.133333-62.577778 73.955556-125.155556 108.088889-11.377778-11.377778-22.755556-28.444444-34.133333-39.822222 56.888889-28.444444 96.711111-56.888889 113.777778-91.022222 17.066667-22.755556 28.444444-68.266667 28.444444-130.844445h-142.222222V512z m187.733333 0h170.666667V347.022222h-170.666667V512z" fill="#12CBF2" p-id="4501"></path><path d="M984.177778 364.088889c0-108.088889-85.333333-199.111111-199.111111-199.111111s-199.111111 85.333333-199.111111 199.111111c0 56.888889 22.755556 102.4 62.577777 142.222222-96.711111 45.511111-164.977778 147.911111-170.666666 261.688889v56.888889c0 22.755556 17.066667 45.511111 45.511111 45.511111s45.511111-17.066667 45.511111-45.511111v-45.511111c0-119.466667 96.711111-216.177778 216.177778-216.177778 108.088889-5.688889 199.111111-96.711111 199.111111-199.111111z m-307.2 0c0-62.577778 45.511111-108.088889 108.088889-108.088889s108.088889 45.511111 108.088889 108.088889-45.511111 108.088889-108.088889 108.088889-108.088889-51.2-108.088889-108.088889z m-307.2 369.777778v22.755555c0 22.755556-17.066667 45.511111-45.511111 45.511111s-39.822222-22.755556-39.822223-45.511111v-5.688889-17.066666c0-102.4 56.888889-199.111111 142.222223-244.622223-34.133333-34.133333-56.888889-73.955556-56.888889-125.155555 0-96.711111 79.644444-176.355556 176.355555-176.355556 22.755556 0 45.511111 17.066667 45.511111 45.511111s-22.755556 39.822222-45.511111 39.822223c-51.2 0-91.022222 39.822222-91.022222 91.022222s39.822222 85.333333 85.333333 85.333333c22.755556 0 45.511111 17.066667 45.511112 45.511111 0 22.755556-17.066667 45.511111-45.511112 45.511111-91.022222 5.688889-170.666667 91.022222-170.666666 193.422223z m733.866666-62.577778l-176.355555 176.355555-5.688889 5.688889c-11.377778 11.377778-17.066667 11.377778-28.444444 11.377778s-22.755556-5.688889-28.444445-11.377778v-5.688889L739.555556 750.933333c-17.066667-17.066667-17.066667-45.511111 0-62.577777s45.511111-17.066667 62.577777 0l91.022223 73.955555 159.288888-159.288889c17.066667-17.066667 45.511111-17.066667 62.577778 0 5.688889 22.755556 5.688889 51.2-11.377778 68.266667z" fill="#27CBED" p-id="4502"></path></svg>